A book-smart teenager joins his school's wrestling team as a way to reunite his surviving family members, who split apart after the death of his father, a college wrestling legend, 10 years ago.


  
http://www.imdb.com/title/tt1563704/
Genre:Drama | Sport
User Rating:4.6/10


 
Video
Format : xvid
Codec ID : xvid
Duration : 4h 15mn
Bit rate : 710 Kbps
Width : 720 pixels
Height : 398 pixels
Display aspect ratio : 16/9
Frame rate : 29.970 fps
Resolution : 24 bits
Bits/(Pixel*Frame) : 0.083
Stream size : 1.27 GiB (92%)

Audio
Format : MPEG Audio
Format version : Version 1
Format profile : Layer 3
Codec ID : 55
Codec ID/Hint : MP3
Duration : 1h 47mn
Bit rate mode : Constant
Bit rate : 128 Kbps
Channel(s) : 2 channels
Sampling rate : 48.0 KHz
Resolution : 16 bits
Stream size : 98.0 MiB (7%)
Alignment : Aligned on interleaves
Interleave, duration : 24 ms (0.72 video frame)
Writing library : LAME3.96.1
Video
Format : xvid
Codec ID : xvid
Duration : 4h 15mn
Bit rate : 710 Kbps
Width : 720 pixels
Height : 398 pixels
Display aspect ratio : 16/9
Frame rate : 29.970 fps
Resolution : 24 bits
Bits/(Pixel*Frame) : 0.083
Stream size : 1.27 GiB (92%)

Audio
Format : MPEG Audio
Format version : Version 1
Format profile : Layer 3
Codec ID : 55
Codec ID/Hint : MP3
Duration : 1h 47mn
Bit rate mode : Constant
Bit rate : 128 Kbps
Channel(s) : 2 channels
Sampling rate : 48.0 KHz
Resolution : 16 bits
Stream size : 98.0 MiB (7%)
Alignment : Aligned on interleaves
Interleave, duration : 24 ms (0.72 video frame)
Writing library : LAME3.96.1






================================== 
http://thepiratebay.org/user/hiest
==================================






Screenshots:
 
http://postimg.com/image/22000/21854.jpg